<?xml version="1.0" encoding="utf-8"?>
<!-- Generator: Adobe Illustrator 27.3.1, SVG Export Plug-In . SVG Version: 6.00 Build 0)  -->
<svg version="1.1" id="Layer_1" xmlns="http://www.w3.org/2000/svg" xmlns:xlink="http://www.w3.org/1999/xlink" x="0px" y="0px"
	 viewBox="0 0 841.9 164.1" style="enable-background:new 0 0 841.9 164.1;" xml:space="preserve">
<style type="text/css">
	.st0{fill:#FFFFFF;}
</style>
<g>
	<g>
		<path class="st0" d="M172.5,46.8c-0.4,19.3-8.1,37.4-21.8,51.1c-0.5,0.5-1,1-1.5,1.5c-0.2,0.1-0.3,0.3-0.5,0.4
			c-0.6,0.6-1.3,1.2-2,1.8c-0.2,0.2-0.4,0.3-0.6,0.5c-0.3,0.2-0.6,0.5-0.9,0.7c-0.2,0.2-0.5,0.4-0.7,0.6c-0.4,0.3-0.9,0.7-1.3,1
			c-0.1,0.1-0.3,0.2-0.4,0.3c-0.1,0.1-0.3,0.2-0.4,0.3c-0.2,0.2-0.5,0.3-0.7,0.5c-0.3,0.2-0.6,0.4-0.8,0.6c-0.2,0.2-0.4,0.3-0.7,0.5
			c-0.2,0.2-0.5,0.3-0.7,0.5c0,0-0.1,0-0.1,0.1c-0.2,0.2-0.5,0.3-0.7,0.5c-0.3,0.2-0.5,0.3-0.8,0.5c-0.3,0.2-0.5,0.3-0.8,0.5
			c0,0,0,0,0,0c-0.2,0.1-0.5,0.3-0.7,0.4c-0.3,0.2-0.6,0.4-1,0.6c-0.2,0.1-0.4,0.2-0.6,0.4c-0.2,0.1-0.4,0.2-0.7,0.4
			c-0.3,0.2-0.6,0.3-0.9,0.5c-0.2,0.1-0.5,0.3-0.7,0.4c-0.2,0.1-0.4,0.2-0.6,0.3c-0.2,0.1-0.3,0.2-0.5,0.2c-0.2,0.1-0.4,0.2-0.6,0.3
			c-0.3,0.1-0.5,0.3-0.8,0.4c-0.3,0.1-0.5,0.3-0.8,0.4c-0.3,0.1-0.5,0.2-0.8,0.3c0,0-0.1,0-0.1,0c-0.3,0.1-0.5,0.2-0.8,0.3
			c-0.3,0.1-0.6,0.2-0.8,0.4c-0.3,0.1-0.6,0.2-0.8,0.3c-0.3,0.1-0.6,0.2-0.8,0.3c-0.3,0.1-0.5,0.2-0.8,0.3c0,0,0,0-0.1,0
			c-0.3,0.1-0.5,0.2-0.8,0.3c0,0,0,0,0,0c-0.3,0.1-0.6,0.2-0.8,0.3c-0.6,0.2-1.1,0.4-1.7,0.6c-0.3,0.1-0.6,0.2-0.9,0.3
			c-0.3,0.1-0.6,0.2-0.9,0.3c-0.3,0.1-0.6,0.2-0.9,0.2c-1.2,0.3-2.3,0.6-3.5,0.9c-0.6,0.1-1.2,0.3-1.8,0.4c-0.3,0.1-0.6,0.1-0.9,0.2
			c-0.6,0.1-1.2,0.2-1.8,0.3c-0.6,0.1-1.2,0.2-1.8,0.3c0,0,0,0-0.1,0c-0.6,0.1-1.2,0.2-1.7,0.2c0,0,0,0,0,0
			c-0.9,0.1-1.8,0.2-2.7,0.3h0c-0.2,0-0.4,0-0.7,0c-0.4,0-0.9,0.1-1.3,0.1c-0.2,0-0.4,0-0.7,0c0,0-0.1,0-0.1,0c-0.3,0-0.6,0-0.9,0
			c-0.3,0-0.6,0-0.9,0V90.7c11.1-0.4,21.5-4.7,29.5-12.2c0.4-0.3,0.7-0.7,1.1-1c0.9-0.9,1.8-1.8,2.6-2.8c0.1-0.1,0.2-0.2,0.3-0.4
			c0.1-0.2,0.3-0.3,0.4-0.5c0.1-0.1,0.2-0.3,0.3-0.4c0.4-0.5,0.8-1,1.1-1.5c0.1-0.1,0.2-0.3,0.3-0.5c0.1-0.1,0.2-0.3,0.3-0.4
			c0.1-0.2,0.2-0.3,0.4-0.5c0.1-0.1,0.2-0.3,0.3-0.5c0.5-0.8,1-1.6,1.5-2.4c0.2-0.3,0.3-0.6,0.5-0.9c0.3-0.5,0.5-1,0.8-1.5
			c0.1-0.2,0.2-0.3,0.2-0.5c0.1-0.2,0.2-0.3,0.2-0.5c0.3-0.7,0.6-1.4,0.9-2.1c0.1-0.2,0.1-0.3,0.2-0.5c0-0.1,0.1-0.2,0.1-0.3
			c0.1-0.1,0.1-0.3,0.2-0.5c0.1-0.1,0.1-0.3,0.2-0.4c0.6-1.7,1.1-3.4,1.5-5.2c0.1-0.3,0.1-0.7,0.2-1c0.1-0.3,0.1-0.7,0.2-1
			c0-0.1,0-0.2,0.1-0.3l0.1-0.3c0-0.2,0.1-0.4,0.1-0.6c0-0.2,0.1-0.4,0.1-0.7c0-0.1,0-0.3,0.1-0.5c0-0.2,0-0.4,0.1-0.6
			c0-0.2,0-0.5,0.1-0.7c0-0.1,0-0.3,0-0.4c0-0.2,0-0.4,0-0.5c0,0,0,0,0-0.1c0-0.2,0-0.3,0-0.5c0-0.1,0-0.2,0-0.3c0-0.2,0-0.3,0-0.5
			c0-0.2,0-0.4,0-0.5H172.5z"/>
		<path class="st0" d="M140.6,46.8C140.6,46.8,140.6,46.8,140.6,46.8C140.6,46.8,140.6,46.8,140.6,46.8L140.6,46.8z"/>
		<path class="st0" d="M154,98.9c13.9-14.5,21.6-33.5,21.6-53.6v-1.5h-34.9l-43.9,0v2.1l30.4,30.4c-7.9,7.4-18.1,11.4-28.9,11.4
			h-1.5v34.9h78.8v-2.1L154,98.9z M101.9,46.8l38.8,0h0c0,0,0,0.1,0,0.1c0,0.2,0,0.4,0,0.5c0,0.1,0,0.2,0,0.4c0,0.1,0,0.3,0,0.4
			c0,0.2,0,0.3,0,0.5c-0.1,0.8-0.1,1.6-0.3,2.4c0,0.3-0.1,0.6-0.1,0.8c0,0.1,0,0.1,0,0.2c0,0.2,0,0.3-0.1,0.5c0,0.2-0.1,0.4-0.1,0.6
			c0,0.1,0,0.3-0.1,0.4c0,0.2-0.1,0.4-0.1,0.6c0,0.1-0.1,0.3-0.1,0.4c0,0.1,0,0.1,0,0.2c0,0.2-0.1,0.3-0.1,0.5
			c0,0.2-0.1,0.3-0.1,0.5c-0.1,0.3-0.2,0.6-0.2,0.9c0,0.1-0.1,0.2-0.1,0.4c-0.1,0.5-0.3,1-0.4,1.4c0,0.1-0.1,0.2-0.1,0.4
			c-0.2,0.5-0.4,1-0.6,1.6c0,0.1-0.1,0.2-0.1,0.3c-0.1,0.3-0.2,0.6-0.3,0.9c-0.1,0.3-0.2,0.5-0.3,0.8c0,0,0,0.1,0,0.1
			c-0.1,0.2-0.2,0.5-0.3,0.7c0,0.1-0.1,0.1-0.1,0.2c-0.1,0.3-0.2,0.5-0.4,0.8c0,0.1-0.1,0.1-0.1,0.3c-0.1,0.2-0.2,0.4-0.3,0.6
			c0,0,0,0,0,0.1c-0.1,0.3-0.3,0.5-0.4,0.8c0,0,0,0,0,0.1c-0.1,0.3-0.3,0.5-0.5,0.8c0,0,0,0,0,0c-0.1,0.2-0.3,0.4-0.4,0.7
			c0,0.1-0.1,0.2-0.1,0.2c-0.1,0.2-0.3,0.4-0.4,0.6c-0.1,0.1-0.1,0.2-0.2,0.3c-0.1,0.2-0.3,0.4-0.4,0.6c0,0,0,0,0,0
			c-0.2,0.2-0.3,0.5-0.5,0.7c0,0.1-0.1,0.1-0.1,0.2c-0.2,0.2-0.3,0.4-0.5,0.7c0,0,0,0,0,0c-0.2,0.3-0.4,0.5-0.6,0.8
			c-0.2,0.2-0.4,0.5-0.6,0.7c-0.2,0.2-0.4,0.5-0.6,0.7c-0.2,0.2-0.4,0.5-0.6,0.7c-0.2,0.2-0.4,0.4-0.6,0.6c0,0,0,0-0.1,0.1
			L101.9,46.8z M118.4,116.8c-1.2,0.3-2.3,0.6-3.5,0.9c-0.6,0.1-1.2,0.3-1.8,0.4c-0.3,0.1-0.6,0.1-0.9,0.2c-0.6,0.1-1.2,0.2-1.8,0.3
			c-0.6,0.1-1.2,0.2-1.8,0.3c0,0,0,0-0.1,0c-0.6,0.1-1.2,0.2-1.7,0.2c0,0,0,0,0,0c-0.9,0.1-1.8,0.2-2.7,0.3h0c-0.2,0-0.4,0-0.7,0
			c-0.4,0-0.9,0.1-1.3,0.1c-0.2,0-0.4,0-0.7,0c0,0-0.1,0-0.1,0c-0.3,0-0.6,0-0.9,0c-0.3,0-0.6,0-0.9,0V90.7
			c11.1-0.4,21.5-4.7,29.5-12.2c0.4-0.3,0.7-0.7,1.1-1c0.9-0.9,1.8-1.8,2.6-2.8c0.1-0.1,0.2-0.2,0.3-0.4c0.1-0.2,0.3-0.3,0.4-0.5
			c0.1-0.1,0.2-0.3,0.3-0.4c0.4-0.5,0.8-1,1.1-1.5c0.1-0.1,0.2-0.3,0.3-0.5c0.1-0.1,0.2-0.3,0.3-0.4c0.1-0.2,0.2-0.3,0.4-0.5
			c0.1-0.1,0.2-0.3,0.3-0.5c0.5-0.8,1-1.6,1.5-2.4c0.2-0.3,0.3-0.6,0.5-0.9c0.3-0.5,0.5-1,0.8-1.5c0.1-0.2,0.2-0.3,0.2-0.5
			c0.1-0.2,0.2-0.3,0.2-0.5c0.3-0.7,0.6-1.4,0.9-2.1c0.1-0.2,0.1-0.3,0.2-0.5c0-0.1,0.1-0.2,0.1-0.3c0.1-0.1,0.1-0.3,0.2-0.5
			c0.1-0.1,0.1-0.3,0.2-0.4c0.6-1.7,1.1-3.4,1.5-5.2c0.1-0.3,0.1-0.7,0.2-1c0.1-0.3,0.1-0.7,0.2-1c0-0.1,0-0.2,0.1-0.3l0.1-0.3
			c0-0.2,0.1-0.4,0.1-0.6c0-0.2,0.1-0.4,0.1-0.7c0-0.1,0-0.3,0.1-0.5c0-0.2,0-0.4,0.1-0.6c0-0.2,0-0.5,0.1-0.7c0-0.1,0-0.3,0-0.4
			c0-0.2,0-0.4,0-0.5c0,0,0,0,0-0.1c0-0.2,0-0.3,0-0.5c0-0.1,0-0.2,0-0.3c0-0.2,0-0.3,0-0.5c0-0.2,0-0.4,0-0.5h28.9
			c-0.4,19.3-8.1,37.4-21.8,51.1c-0.5,0.5-1,1-1.5,1.5c-0.2,0.1-0.3,0.3-0.5,0.4c-0.6,0.6-1.3,1.2-2,1.8c-0.2,0.2-0.4,0.3-0.6,0.5
			c-0.3,0.2-0.6,0.5-0.9,0.7c-0.2,0.2-0.5,0.4-0.7,0.6c-0.4,0.3-0.9,0.7-1.3,1c-0.1,0.1-0.3,0.2-0.4,0.3c-0.1,0.1-0.3,0.2-0.4,0.3
			c-0.2,0.2-0.5,0.3-0.7,0.5c-0.3,0.2-0.6,0.4-0.8,0.6c-0.2,0.2-0.4,0.3-0.7,0.5c-0.2,0.2-0.5,0.3-0.7,0.5c0,0-0.1,0-0.1,0.1
			c-0.2,0.2-0.5,0.3-0.7,0.5c-0.3,0.2-0.5,0.3-0.8,0.5c-0.3,0.2-0.5,0.3-0.8,0.5c0,0,0,0,0,0c-0.2,0.1-0.5,0.3-0.7,0.4
			c-0.3,0.2-0.6,0.4-1,0.6c-0.2,0.1-0.4,0.2-0.6,0.4c-0.2,0.1-0.4,0.2-0.7,0.4c-0.3,0.2-0.6,0.3-0.9,0.5c-0.2,0.1-0.5,0.3-0.7,0.4
			c-0.2,0.1-0.4,0.2-0.6,0.3c-0.2,0.1-0.3,0.2-0.5,0.2c-0.2,0.1-0.4,0.2-0.6,0.3c-0.3,0.1-0.5,0.3-0.8,0.4c-0.3,0.1-0.5,0.3-0.8,0.4
			c-0.3,0.1-0.5,0.2-0.8,0.3c0,0-0.1,0-0.1,0c-0.3,0.1-0.5,0.2-0.8,0.3c-0.3,0.1-0.6,0.2-0.8,0.4c-0.3,0.1-0.6,0.2-0.8,0.3
			c-0.3,0.1-0.6,0.2-0.8,0.3c-0.3,0.1-0.5,0.2-0.8,0.3c0,0,0,0-0.1,0c-0.3,0.1-0.5,0.2-0.8,0.3c0,0,0,0,0,0
			c-0.3,0.1-0.6,0.2-0.8,0.3c-0.6,0.2-1.1,0.4-1.7,0.6c-0.3,0.1-0.6,0.2-0.9,0.3c-0.3,0.1-0.6,0.2-0.9,0.3
			C119,116.7,118.7,116.8,118.4,116.8z M119.7,119.6c0,0,0.1,0,0.1,0c0.3-0.1,0.7-0.2,1-0.3c0.3-0.1,0.6-0.2,0.9-0.3
			c0.5-0.1,0.9-0.3,1.4-0.4c0.3-0.1,0.7-0.2,1-0.3c0,0,0,0,0.1,0c0.3-0.1,0.6-0.2,0.9-0.3c0.1,0,0.2-0.1,0.2-0.1
			c0.3-0.1,0.6-0.2,0.9-0.3c0.5-0.2,0.9-0.4,1.4-0.5c0.2-0.1,0.5-0.2,0.7-0.3c0.1-0.1,0.3-0.1,0.4-0.2c0.2-0.1,0.5-0.2,0.7-0.3
			c0.4-0.2,0.9-0.4,1.3-0.6c0.3-0.2,0.7-0.3,1-0.5c0,0,0,0,0,0c0.3-0.1,0.6-0.3,0.9-0.4c0.8-0.4,1.5-0.8,2.3-1.2
			c0.3-0.2,0.7-0.4,1-0.5c0,0,0,0,0,0c0.3-0.2,0.6-0.3,0.9-0.5c0.1,0,0.1-0.1,0.2-0.1c0.3-0.1,0.5-0.3,0.8-0.5
			c0.7-0.4,1.3-0.8,2-1.2c0.3-0.2,0.5-0.3,0.8-0.5c0,0,0,0,0,0c0.3-0.2,0.5-0.3,0.8-0.5c0,0,0,0,0,0c0.3-0.2,0.5-0.3,0.8-0.5
			c0.6-0.4,1.2-0.9,1.9-1.3c0.2-0.1,0.4-0.3,0.6-0.4c0.2-0.1,0.3-0.2,0.5-0.4c0.1-0.1,0.2-0.2,0.3-0.2c0.2-0.1,0.3-0.3,0.5-0.4
			c0.5-0.4,1-0.8,1.5-1.2c0.2-0.1,0.3-0.3,0.5-0.4c0.1-0.1,0.2-0.2,0.3-0.3c0.2-0.2,0.4-0.4,0.6-0.5c0.2-0.2,0.5-0.4,0.7-0.6
			c0.5-0.4,0.9-0.8,1.4-1.3c0.2-0.2,0.4-0.4,0.6-0.6c0.1-0.1,0.2-0.2,0.4-0.4c0,0,0,0,0,0l18.6,18.6H119.7z"/>
	</g>
</g>
<g>
	<g>
		<path class="st0" d="M275.2,55.1h-42.7v20.8h39.6v11.1h-39.6V110h43.4v11.7h-57V43.5h56.3V55.1z"/>
		<path class="st0" d="M351.6,91.4c0,21.2-10.6,31.8-31.8,31.8c-11.1,0-19.2-2.6-24.4-7.9s-7.9-13.3-7.9-24.2V43.5h13.7v50.4
			c0,12,6.3,18,18.8,18c3.8,0,6.9-0.5,9.4-1.5s4.3-2.6,5.4-4.7c1.2-2.1,2-4.4,2.4-6.9c0.4-2.5,0.7-5.5,0.7-9.2V43.5h13.7V91.4z"/>
		<path class="st0" d="M401.6,74.7l33.3,47h-17l-25.7-37.4l-11.2,11.2v26.2h-13.6V43.5h13.6V79l34.6-35.5h17.3L401.6,74.7z"/>
		<path class="st0" d="M496.1,121.7h-53.6V43.5h13.8v66.3h39.7V121.7z"/>
		<path class="st0" d="M527.7,90.6v31.1h-13.5V90.6l-29.5-47.1h15.8l20.8,34.6l20.5-34.6h15.4L527.7,90.6z"/>
		<path class="st0" d="M594.4,43.5c5.4,0,10.2,0.6,14.3,1.7c4.1,1.1,7.9,3.2,11.3,6.3c7.7,6.9,11.5,16.8,11.5,29.8
			c0,13.8-3.7,24.4-11,31.7c-3.2,3.2-6.7,5.5-10.5,6.8c-3.8,1.3-8.7,1.9-14.9,1.9h-30.5V43.5H594.4z M578.3,110.2h16.1
			c8.6,0,14.6-2.5,18.1-7.5c3.5-5,5.3-11.9,5.3-20.8c0-8.4-2-15-5.9-19.7c-4-4.7-10.1-7.1-18.3-7.1h-15.3V110.2z"/>
		<path class="st0" d="M657.9,121.7H644V43.5h13.8V121.7z"/>
		<path class="st0" d="M740.3,121.7h-14.7l-7.5-20.8h-31l-7.7,20.8h-14.2l30.2-78.3h14.6L740.3,121.7z M702.9,57.7l-12.2,32.9h23.8
			L702.9,57.7z"/>
	</g>
</g>
</svg>
